<svg xmlns="http://www.w3.org/2000/svg" viewBox="0 0 240 240" width="240" height="240" role="img" aria-label="milestone-suite icon">
  <g transform="translate(17.15,26.5) scale(0.785)">
    <g fill="none" stroke-linecap="round" stroke-linejoin="round">
      <path d="M20.9,117 A126 126 0 0 1 241.3,120.9" stroke="#5AA6D4" stroke-width="2.6" opacity="0.95"></path>
      <path d="M251.9,115.3 Q248,52 187,52" stroke="#5AA6D4" stroke-width="2" opacity="0.9" stroke-dasharray="3 4"></path>
      <path d="M116.1,172 Q60,150 29.6,122" stroke="#3A82B4" stroke-width="3"></path>
      <path d="M123,165.6 Q95,120 79.2,75.7" stroke="#3A82B4" stroke-width="3"></path>
      <path d="M136.5,165.4 Q165,120 177.2,74" stroke="#3A82B4" stroke-width="3"></path>
      <path d="M144.1,172.5 Q200,150 232.5,125.6" stroke="#3A82B4" stroke-width="3"></path>
      <circle cx="20.9" cy="117" r="10" stroke="#3A82B4" stroke-width="3"></circle>
      <circle cx="74.8" cy="66.7" r="10" stroke="#3A82B4" stroke-width="3"></circle>
      <circle cx="181.3" cy="64.9" r="10" stroke="#3A82B4" stroke-width="3"></circle>
      <circle cx="241.3" cy="120.9" r="10" stroke="#3A82B4" stroke-width="3"></circle>
      <circle cx="130" cy="180" r="16" stroke="#3A82B4" stroke-width="3.2"></circle>
      <g stroke="#5AA6D4" stroke-width="2.6">
        <path d="M-4,-4 L1,0 L-4,4" transform="translate(44.1,87.9) rotate(-43)"></path>
        <path d="M-4,-4 L1,0 L-4,4" transform="translate(127.8,54) rotate(-2)"></path>
        <path d="M-4,-4 L1,0 L-4,4" transform="translate(215.9,87.9) rotate(43)"></path>
        <path d="M-4,-4 L1,0 L-4,4" transform="translate(188,52) rotate(184)"></path>
      </g>
    </g>
    <circle cx="130" cy="180" r="4" fill="#5AA6D4"></circle>
  </g>
</svg>